<mxfile host="app.diagrams.net" modified="2020-10-28T02:41:19.783Z" agent="5.0 (Macintosh; Intel Mac OS X 10_14_6) AppleWebKit/537.36 (KHTML, like Gecko) Chrome/86.0.4240.75 Safari/537.36" etag="5PMCgdMyvG-6KKlnwot6" version="13.8.3" type="github">
  <diagram id="KxC0PWiIgG1uTaloSP3y" name="ページ1">
    <mxGraphModel dx="2222" dy="762" grid="1" gridSize="10" guides="1" tooltips="1" connect="1" arrows="1" fold="1" page="1" pageScale="1" pageWidth="827" pageHeight="1169" math="0" shadow="0">
      <root>
        <mxCell id="0" />
        <mxCell id="1" parent="0" />
        <mxCell id="JdE6HHubfxDg-9yc5TAB-155" value="users" style="swimlane;childLayout=stackLayout;horizontal=1;startSize=30;horizontalStack=0;rounded=1;fontSize=14;fontStyle=0;strokeWidth=2;resizeParent=0;resizeLast=1;shadow=0;dashed=0;align=center;" vertex="1" parent="1">
          <mxGeometry x="-320" y="40" width="200" height="240" as="geometry" />
        </mxCell>
        <mxCell id="JdE6HHubfxDg-9yc5TAB-156" value="has_many :items&#xa;&#xa;has_one :profile&#xa;&#xa;has_one :credit_card&#xa;&#xa;&#xa;nickname(string / null : false)&#xa;&#xa;email(string / null : false)&#xa;&#xa;password(string / null : false)&#xa;" style="align=left;strokeColor=none;fillColor=none;spacingLeft=4;fontSize=12;verticalAlign=top;resizable=0;rotatable=0;part=1;" vertex="1" parent="JdE6HHubfxDg-9yc5TAB-155">
          <mxGeometry y="30" width="200" height="210" as="geometry" />
        </mxCell>
        <mxCell id="JdE6HHubfxDg-9yc5TAB-168" value="items" style="swimlane;childLayout=stackLayout;horizontal=1;startSize=30;horizontalStack=0;rounded=1;fontSize=14;fontStyle=0;strokeWidth=2;resizeParent=0;resizeLast=1;shadow=0;dashed=0;align=center;" vertex="1" parent="1">
          <mxGeometry x="240" y="40" width="360" height="590" as="geometry" />
        </mxCell>
        <mxCell id="JdE6HHubfxDg-9yc5TAB-169" value="belongs_to :user&#xa;&#xa;belongs_to :category&#xa;&#xa;belongs_to :item_condition&#xa;&#xa;belongs_to :shipping_payer&#xa;&#xa;belongs_to :preparation_day&#xa;&#xa;&#xa;image&#xa;&#xa;name(string / null : false)&#xa;&#xa;description(text / null : false)&#xa;&#xa;price(integer / null : false)&#xa;&#xa;category_id(references / foreign_key : true)&#xa;&#xa;item_condition_id(references / foreign_key : true)&#xa;&#xa;shipping_payer_id(references / foreign_key : true)&#xa;&#xa;prefecture_code(integer / null : false)&#xa;&#xa;preparation_day_id(references / foreign_key : true)&#xa;&#xa;seller_id(references / null : false / foreign_key : true)&#xa;&#xa;buyer_id(references / foreign_key : true)&#xa;&#xa;&#xa;&#xa;&#xa;&#xa;" style="align=left;strokeColor=none;fillColor=none;spacingLeft=4;fontSize=12;verticalAlign=top;resizable=0;rotatable=0;part=1;" vertex="1" parent="JdE6HHubfxDg-9yc5TAB-168">
          <mxGeometry y="30" width="360" height="560" as="geometry" />
        </mxCell>
        <mxCell id="JdE6HHubfxDg-9yc5TAB-170" value="profiles" style="swimlane;childLayout=stackLayout;horizontal=1;startSize=30;horizontalStack=0;rounded=1;fontSize=14;fontStyle=0;strokeWidth=2;resizeParent=0;resizeLast=1;shadow=0;dashed=0;align=center;" vertex="1" parent="1">
          <mxGeometry x="-720" y="40" width="320" height="360" as="geometry" />
        </mxCell>
        <mxCell id="JdE6HHubfxDg-9yc5TAB-171" value="belongs_to :user&#xa;&#xa;&#xa;first_name(string / null : false)&#xa;&#xa;last_name(string / null : false)&#xa;&#xa;first_name_kana(string / null : false)&#xa;&#xa;last_name_kana(string / null : false)&#xa;&#xa;birth_year(date / null : false)&#xa;&#xa;birth_month(date / null : false)&#xa;&#xa;birth_day(date / null : false)&#xa;&#xa;user_id(references / null : false / foreign_key : true)&#xa;" style="align=left;strokeColor=none;fillColor=none;spacingLeft=4;fontSize=12;verticalAlign=top;resizable=0;rotatable=0;part=1;" vertex="1" parent="JdE6HHubfxDg-9yc5TAB-170">
          <mxGeometry y="30" width="320" height="330" as="geometry" />
        </mxCell>
        <mxCell id="JdE6HHubfxDg-9yc5TAB-172" value="credit_cards" style="swimlane;childLayout=stackLayout;horizontal=1;startSize=30;horizontalStack=0;rounded=1;fontSize=14;fontStyle=0;strokeWidth=2;resizeParent=0;resizeLast=1;shadow=0;dashed=0;align=center;" vertex="1" parent="1">
          <mxGeometry x="-720" y="440" width="320" height="320" as="geometry" />
        </mxCell>
        <mxCell id="JdE6HHubfxDg-9yc5TAB-173" value="belongs_to :user&#xa;&#xa;&#xa;card_number(integer / null : false)&#xa; &#xa;expiration_year(integer / null : false)&#xa;&#xa;expiration_month(integer / null : false)&#xa;&#xa;security_code(integer / null : false)&#xa;&#xa;user_id(references / null : false / foreign_key : true)" style="align=left;strokeColor=none;fillColor=none;spacingLeft=4;fontSize=12;verticalAlign=top;resizable=0;rotatable=0;part=1;" vertex="1" parent="JdE6HHubfxDg-9yc5TAB-172">
          <mxGeometry y="30" width="320" height="290" as="geometry" />
        </mxCell>
        <mxCell id="JdE6HHubfxDg-9yc5TAB-175" value="category" style="swimlane;childLayout=stackLayout;horizontal=1;startSize=30;horizontalStack=0;rounded=1;fontSize=14;fontStyle=0;strokeWidth=2;resizeParent=0;resizeLast=1;shadow=0;dashed=0;align=center;" vertex="1" parent="1">
          <mxGeometry x="-80" y="120" width="160" height="120" as="geometry" />
        </mxCell>
        <mxCell id="JdE6HHubfxDg-9yc5TAB-176" value="has_many :items&#xa;&#xa;&#xa;name(string / null : false)" style="align=left;strokeColor=none;fillColor=none;spacingLeft=4;fontSize=12;verticalAlign=top;resizable=0;rotatable=0;part=1;" vertex="1" parent="JdE6HHubfxDg-9yc5TAB-175">
          <mxGeometry y="30" width="160" height="90" as="geometry" />
        </mxCell>
        <mxCell id="JdE6HHubfxDg-9yc5TAB-177" value="item_conditions" style="swimlane;childLayout=stackLayout;horizontal=1;startSize=30;horizontalStack=0;rounded=1;fontSize=14;fontStyle=0;strokeWidth=2;resizeParent=0;resizeLast=1;shadow=0;dashed=0;align=center;" vertex="1" parent="1">
          <mxGeometry x="-80" y="280" width="200" height="120" as="geometry" />
        </mxCell>
        <mxCell id="JdE6HHubfxDg-9yc5TAB-178" value="has_many :items&#xa;&#xa;&#xa;item_condition(string / null : false)" style="align=left;strokeColor=none;fillColor=none;spacingLeft=4;fontSize=12;verticalAlign=top;resizable=0;rotatable=0;part=1;" vertex="1" parent="JdE6HHubfxDg-9yc5TAB-177">
          <mxGeometry y="30" width="200" height="90" as="geometry" />
        </mxCell>
        <mxCell id="JdE6HHubfxDg-9yc5TAB-179" value="shipping_payers" style="swimlane;childLayout=stackLayout;horizontal=1;startSize=30;horizontalStack=0;rounded=1;fontSize=14;fontStyle=0;strokeWidth=2;resizeParent=0;resizeLast=1;shadow=0;dashed=0;align=center;" vertex="1" parent="1">
          <mxGeometry x="-80" y="440" width="200" height="120" as="geometry" />
        </mxCell>
        <mxCell id="JdE6HHubfxDg-9yc5TAB-180" value="has_many :items&#xa;&#xa;&#xa;shipping_payer(string / null : false)" style="align=left;strokeColor=none;fillColor=none;spacingLeft=4;fontSize=12;verticalAlign=top;resizable=0;rotatable=0;part=1;" vertex="1" parent="JdE6HHubfxDg-9yc5TAB-179">
          <mxGeometry y="30" width="200" height="90" as="geometry" />
        </mxCell>
        <mxCell id="JdE6HHubfxDg-9yc5TAB-181" value="preparation_days" style="swimlane;childLayout=stackLayout;horizontal=1;startSize=30;horizontalStack=0;rounded=1;fontSize=14;fontStyle=0;strokeWidth=2;resizeParent=0;resizeLast=1;shadow=0;dashed=0;align=center;" vertex="1" parent="1">
          <mxGeometry x="-80" y="600" width="200" height="120" as="geometry" />
        </mxCell>
        <mxCell id="JdE6HHubfxDg-9yc5TAB-182" value="has_many :items&#xa;&#xa;&#xa;preparation_day(string / null : false)" style="align=left;strokeColor=none;fillColor=none;spacingLeft=4;fontSize=12;verticalAlign=top;resizable=0;rotatable=0;part=1;" vertex="1" parent="JdE6HHubfxDg-9yc5TAB-181">
          <mxGeometry y="30" width="200" height="90" as="geometry" />
        </mxCell>
        <mxCell id="JdE6HHubfxDg-9yc5TAB-183" value="" style="edgeStyle=entityRelationEdgeStyle;fontSize=12;html=1;endArrow=ERzeroToMany;startArrow=ERzeroToOne;entryX=0.001;entryY=0.027;entryDx=0;entryDy=0;entryPerimeter=0;exitX=1.002;exitY=0.083;exitDx=0;exitDy=0;exitPerimeter=0;" edge="1" parent="1" source="JdE6HHubfxDg-9yc5TAB-156" target="JdE6HHubfxDg-9yc5TAB-169">
          <mxGeometry width="100" height="100" relative="1" as="geometry">
            <mxPoint x="-120" y="100" as="sourcePoint" />
            <mxPoint x="-30" y="10" as="targetPoint" />
          </mxGeometry>
        </mxCell>
        <mxCell id="JdE6HHubfxDg-9yc5TAB-184" value="" style="edgeStyle=entityRelationEdgeStyle;fontSize=12;html=1;endArrow=ERmandOne;startArrow=ERmandOne;exitX=1.008;exitY=0.039;exitDx=0;exitDy=0;exitPerimeter=0;" edge="1" parent="1" source="JdE6HHubfxDg-9yc5TAB-171">
          <mxGeometry width="100" height="100" relative="1" as="geometry">
            <mxPoint x="-400" y="210" as="sourcePoint" />
            <mxPoint x="-320" y="110" as="targetPoint" />
          </mxGeometry>
        </mxCell>
        <mxCell id="JdE6HHubfxDg-9yc5TAB-185" value="" style="edgeStyle=entityRelationEdgeStyle;fontSize=12;html=1;endArrow=ERmandOne;startArrow=ERmandOne;exitX=1.005;exitY=0.04;exitDx=0;exitDy=0;exitPerimeter=0;" edge="1" parent="1" source="JdE6HHubfxDg-9yc5TAB-173">
          <mxGeometry width="100" height="100" relative="1" as="geometry">
            <mxPoint x="-390" y="480" as="sourcePoint" />
            <mxPoint x="-320" y="140" as="targetPoint" />
          </mxGeometry>
        </mxCell>
        <mxCell id="JdE6HHubfxDg-9yc5TAB-187" value="" style="edgeStyle=entityRelationEdgeStyle;fontSize=12;html=1;endArrow=ERzeroToMany;startArrow=ERzeroToOne;exitX=0.995;exitY=0.089;exitDx=0;exitDy=0;exitPerimeter=0;" edge="1" parent="1" source="JdE6HHubfxDg-9yc5TAB-176">
          <mxGeometry width="100" height="100" relative="1" as="geometry">
            <mxPoint x="90" y="160" as="sourcePoint" />
            <mxPoint x="240" y="110" as="targetPoint" />
          </mxGeometry>
        </mxCell>
        <mxCell id="JdE6HHubfxDg-9yc5TAB-188" value="" style="edgeStyle=entityRelationEdgeStyle;fontSize=12;html=1;endArrow=ERzeroToMany;startArrow=ERzeroToOne;entryX=0.001;entryY=0.126;entryDx=0;entryDy=0;entryPerimeter=0;" edge="1" parent="1" target="JdE6HHubfxDg-9yc5TAB-169">
          <mxGeometry width="100" height="100" relative="1" as="geometry">
            <mxPoint x="120" y="320" as="sourcePoint" />
            <mxPoint x="220" y="220" as="targetPoint" />
          </mxGeometry>
        </mxCell>
        <mxCell id="JdE6HHubfxDg-9yc5TAB-189" value="" style="edgeStyle=entityRelationEdgeStyle;fontSize=12;html=1;endArrow=ERzeroToMany;startArrow=ERzeroToOne;entryX=0.001;entryY=0.174;entryDx=0;entryDy=0;entryPerimeter=0;" edge="1" parent="1" target="JdE6HHubfxDg-9yc5TAB-169">
          <mxGeometry width="100" height="100" relative="1" as="geometry">
            <mxPoint x="120" y="480" as="sourcePoint" />
            <mxPoint x="220" y="380" as="targetPoint" />
          </mxGeometry>
        </mxCell>
        <mxCell id="JdE6HHubfxDg-9yc5TAB-190" value="" style="edgeStyle=entityRelationEdgeStyle;fontSize=12;html=1;endArrow=ERzeroToMany;startArrow=ERzeroToOne;" edge="1" parent="1">
          <mxGeometry width="100" height="100" relative="1" as="geometry">
            <mxPoint x="120" y="640" as="sourcePoint" />
            <mxPoint x="240" y="190" as="targetPoint" />
          </mxGeometry>
        </mxCell>
      </root>
    </mxGraphModel>
  </diagram>
</mxfile>
